<svg width="20.000488" height="26.000031" viewBox="0 0 20.0005 26" fill="none" xmlns="http://www.w3.org/2000/svg" xmlns:xlink="http://www.w3.org/1999/xlink">
	<desc>
			Created with Pixso.
	</desc>
	<defs/>
	<path id="Vector" d="M2.47 8.83C2.85 8.42 3.34 8.19 3.85 8.2L16.14 8.2C16.65 8.19 17.14 8.42 17.52 8.83C17.9 9.24 18.13 9.8 18.17 10.4L18.99 22.4C19.01 22.73 18.98 23.07 18.88 23.38C18.79 23.69 18.65 23.98 18.46 24.22C18.26 24.47 18.03 24.66 17.78 24.79C17.52 24.93 17.24 24.99 16.96 25L3.03 25C2.75 24.99 2.47 24.93 2.22 24.79C1.96 24.66 1.73 24.47 1.54 24.22C1.34 23.98 1.2 23.69 1.11 23.38C1.02 23.07 0.98 22.73 1 22.4L1.82 10.4C1.86 9.8 2.09 9.24 2.47 8.83Z" stroke="#000000" stroke-opacity="1.000000" stroke-width="2.000000" stroke-linejoin="round"/>
	<path id="Vector" d="M14.07 11.8L14.07 5.79C14.07 4.52 13.64 3.3 12.88 2.4C12.11 1.5 11.08 1 10 1C8.91 1 7.88 1.5 7.11 2.4C6.35 3.3 5.92 4.52 5.92 5.79L5.92 11.8" stroke="#000000" stroke-opacity="1.000000" stroke-width="2.000000" stroke-linejoin="round" stroke-linecap="round"/>
</svg>
