<svg width="13.500000" height="13.500000" viewBox="0 0 13.5 13.5" fill="none" xmlns="http://www.w3.org/2000/svg" xmlns:xlink="http://www.w3.org/1999/xlink">
	<desc>
			Created with Pixso.
	</desc>
	<defs/>
	<path id="Vector" d="M9.87 0.5C11.6 0.5 13 1.89 13 3.62L13 9.87C13 11.6 11.6 13 9.87 13L3.62 13C1.89 13 0.5 11.6 0.5 9.87L0.5 3.62C0.5 1.89 1.89 0.5 3.62 0.5L9.87 0.5Z" stroke="#000000" stroke-opacity="1.000000" stroke-width="1.000000" stroke-linejoin="round"/>
	<path id="Vector" d="M8.99 7.87C8.75 8.34 8.37 8.71 7.9 8.95C7.43 9.19 6.89 9.27 6.37 9.19C5.86 9.1 5.38 8.86 5 8.49C4.63 8.11 4.39 7.63 4.3 7.12C4.22 6.6 4.3 6.06 4.54 5.59C4.78 5.12 5.15 4.74 5.62 4.5C6.09 4.26 6.62 4.17 7.14 4.25C7.67 4.32 8.16 4.57 8.54 4.95C8.92 5.33 9.17 5.82 9.24 6.35C9.32 6.87 9.23 7.4 8.99 7.87Z" stroke="#000000" stroke-opacity="1.000000" stroke-width="1.000000" stroke-linejoin="round"/>
	<path id="Vector" d="M10.18 3.31L10.19 3.31" stroke="#000000" stroke-opacity="1.000000" stroke-width="1.000000" stroke-linejoin="round" stroke-linecap="round"/>
</svg>
