<svg width="11.000000" height="11.875000" viewBox="0 0 11 11.875" fill="none" xmlns="http://www.w3.org/2000/svg" xmlns:xlink="http://www.w3.org/1999/xlink">
	<desc>
			Created with Pixso.
	</desc>
	<defs/>
	<path id="Vector" d="M7.25 3.75C8.24 3.75 9.19 4.14 9.9 4.84C10.6 5.55 11 6.5 11 7.5L11 11.87L8.5 11.87L8.5 7.5C8.5 7.16 8.36 6.85 8.13 6.61C7.89 6.38 7.58 6.25 7.25 6.25C6.91 6.25 6.6 6.38 6.36 6.61C6.13 6.85 6 7.16 6 7.5L6 11.87L3.5 11.87L3.5 7.5C3.5 6.5 3.89 5.55 4.59 4.84C5.3 4.14 6.25 3.75 7.25 3.75Z" fill="#000000" fill-opacity="1.000000" fill-rule="nonzero"/>
	<path id="Vector" d="M0 4.37L2.5 4.37L2.5 11.87L0 11.87L0 4.37Z" fill="#000000" fill-opacity="1.000000" fill-rule="evenodd"/>
	<path id="Vector" d="M2.5 1.25C2.5 1.94 1.94 2.5 1.25 2.5C0.55 2.5 0 1.94 0 1.25C0 0.55 0.55 0 1.25 0C1.94 0 2.5 0.55 2.5 1.25Z" fill="#000000" fill-opacity="1.000000" fill-rule="evenodd"/>
</svg>
