<svg width="206" height="260" viewBox="0 0 206 260" fill="none" xmlns="http://www.w3.org/2000/svg">
<path d="M198.15 178.524C193.51 169.368 186.565 157.151 181.544 155.046C178.677 152.146 174.359 149.719 169.738 147.185L167.382 145.878C167.306 143.393 166.648 141.566 165.344 140.314C157.367 132.685 149.09 121.574 141.041 109.136C141.2 108.434 141.272 107.667 141.226 106.836C141.054 103.715 139.384 101.114 137.501 101.024C136.957 100.998 136.464 101.039 135.928 101.023C133.568 97.1667 131.252 93.2615 128.982 89.3091C129.286 88.4406 129.486 87.4486 129.423 86.3109C129.25 83.1846 127.58 80.5837 125.701 80.4939C125.525 80.4854 124.909 80.4609 123.972 80.4655C121.314 75.6705 118.692 70.8398 116.108 65.9745C116.221 65.3534 116.281 64.6902 116.242 63.9828C116.069 60.8566 114.403 58.2509 112.523 58.161C112.34 58.1523 112.175 58.1641 111.999 58.1557C109.558 53.4639 107.135 48.7565 104.729 44.0336C104.807 43.4798 104.879 42.911 104.845 42.2976C104.673 39.1763 102.999 36.5752 101.123 36.4855L100.886 36.4841C91.0756 17.2477 89.3237 14.3321 86.8936 14.2159C85.288 14.1391 83.8057 14.2163 82.366 14.3497C81.7441 12.9731 81.1136 11.6356 80.4942 10.2394C78.5627 5.89427 74.6588 0.621119 67.0661 0.258121C55.5636 -0.291797 40.4297 10.6921 31.6002 18.0896C22.5362 12.5501 14.9229 9.54168 9.04381 9.26061C3.04234 8.97369 0.397189 11.5262 -0.682845 13.0977C-0.750198 13.1783 -0.833863 13.2237 -0.896794 13.3193C-6.83251 22.7251 -9.99321 40.6901 -11.673 58.5532C-14.9049 76.9834 -14.5302 92.1326 -14.0749 99.1305C-14.3155 99.5418 -14.5169 99.9958 -14.6751 100.483C-16.7702 107.463 -14.7389 135.035 -10.9087 141.183C-1.08179 157.011 8.65435 167.432 18.9631 178.468C30.6229 190.95 42.6759 203.855 57.2586 226.531C69.8226 246.077 94.3946 258.111 124.683 259.559C165.033 261.488 207.15 243.871 205.53 214.581C203.747 182.339 201.028 178.815 198.15 178.524ZM194.461 183.311C187.579 199.564 151.854 206.796 119.964 205.271C109.318 204.762 99.8658 203.304 93.3377 201.156C84.2972 198.183 75.6794 193.568 67.5282 187.978C74.1778 175.054 87.4275 173.63 101.043 174.281C106.332 174.534 111.808 175.122 117.613 175.754C123.541 176.393 129.67 177.051 135.711 177.34C150.292 178.037 168.539 176.926 181.434 162.401C184.006 164.557 189.354 173.165 194.461 183.311ZM149.133 135.918C151.383 139.005 153.505 141.934 155.333 144.542C157.833 148.115 162.898 150.898 168.253 153.843C171.023 155.367 173.813 156.926 176.036 158.478C164.584 169.81 149.137 170.794 135.313 170.133C129.671 169.863 123.907 169.252 118.293 168.643C117.847 160.763 116.568 152.709 114.882 147.734C122.679 141.536 134.061 135.75 149.133 135.918ZM132.165 112.314C135.139 116.564 138.14 120.778 141.169 124.955C127.663 126.416 117.331 132.232 110.07 138.323C107.115 133.024 104.139 127.744 101.144 122.484C108.052 117.348 118.087 112.78 132.165 112.314ZM124.771 101.521C111.872 103.119 102.503 108.029 95.9016 113.392C93.5033 109.242 91.1517 105.222 88.8621 101.348C98.9979 94.9109 110.919 92.7773 118.548 92.096C120.668 95.3697 122.732 98.4828 124.771 101.521ZM83.4536 92.3078C80.5981 87.5784 77.7111 82.8832 74.7931 78.2228C82.1261 74.0839 92.1088 70.333 104.724 69.5695C107.056 73.5641 109.43 77.5148 111.846 81.4201C103.489 82.693 92.7366 85.6423 83.4536 92.3078ZM111.795 69.4636C113.563 72.8043 115.385 76.1968 117.262 79.6316C115.174 76.2741 113.115 72.8831 111.087 69.4593C111.324 69.4608 111.554 69.452 111.795 69.4636ZM100.549 47.7806C102.224 51.0626 103.987 54.5017 105.853 58.1184C105.416 58.1271 105.002 58.1764 104.568 58.1951C102.631 54.7465 100.724 51.2689 98.8461 47.7633C99.421 47.7711 99.9699 47.7628 100.549 47.7806ZM68.9643 69.1131C66.248 64.9229 63.4897 60.7829 60.6904 56.6944C68.2109 52.441 78.7757 48.5651 92.7214 47.8455C94.6719 51.56 96.6208 55.1807 98.5598 58.6874C85.9176 60.2538 76.084 64.6235 68.9643 69.1131ZM86.5628 21.413C87.9368 23.2745 91.1516 29.3978 94.7613 36.428C94.1587 36.4387 93.5522 36.4442 92.9609 36.4653C90.4508 31.5132 88.0047 26.5062 85.6239 21.447C85.9435 21.4475 86.2321 21.407 86.5628 21.413ZM67.465 7.47035C71.5332 7.66484 74.3456 9.62966 76.0592 13.4759C79.5805 21.3908 83.2579 29.1889 87.0869 36.8604C72.6053 38.3437 61.8899 43.1301 54.4399 47.9443C46.2701 36.8232 39.4583 29.0922 34.0682 24.9272C42.3341 17.922 56.9993 6.97 67.465 7.47035ZM3.53306 18.0404C4.05739 17.5228 5.69469 16.2887 9.43885 16.4677C12.3406 16.6064 17.0327 17.6941 24.0217 21.2943C14.9627 22.2722 10.4531 31.8843 6.82758 39.8218C4.49504 44.9102 2.30478 49.7144 0.00997826 49.7725C-1.53809 47.2317 0.145606 32.2302 3.53306 18.0404ZM-5.31026 49.9868C-5.04645 51.3808 -4.66287 52.6029 -4.14177 53.585C-3.06885 55.585 -1.51236 56.7202 0.244514 56.8041C5.47914 57.0544 8.35225 50.7683 11.3948 44.1054C15.0342 36.1587 18.7915 27.9414 26.6111 28.3152C30.9817 28.5242 38.9678 36.5826 49.7631 51.2236C47.371 53.0925 45.5453 54.8158 44.1727 56.2254C43.7595 56.0199 43.3326 55.8997 42.907 55.8688C40.1601 55.7375 38.1393 59.3214 38.391 63.8723C38.6427 68.4232 41.0717 72.2198 43.8187 72.3511C46.2236 72.4661 48.0721 69.7275 48.3244 65.9802C50.6855 63.6112 53.1959 61.5146 55.8338 59.7085C58.6992 63.8545 61.5164 68.0617 64.284 72.328C62.0723 73.9819 59.9441 75.8155 57.9092 77.8202C57.4711 77.5895 57.016 77.456 56.5624 77.4252C53.8191 77.2941 51.798 80.873 52.05 85.4289C52.302 89.9847 54.7308 93.7764 57.4741 93.9075C59.8394 94.0206 61.6565 91.3644 61.9573 87.7131C64.4884 85.2562 67.166 83.0726 69.9693 81.1793C72.8929 85.8037 75.9279 90.69 79.0614 95.8621C76.2657 98.3911 73.7302 101.391 71.5056 104.801C71.3713 104.775 71.2428 104.724 71.106 104.717C68.3519 104.586 66.3347 108.17 66.5864 112.721C66.8379 117.267 69.2636 121.068 72.0177 121.2C74.707 121.328 76.6947 117.861 76.5211 113.423C78.7801 109.973 81.4083 107.016 84.3329 104.634C86.7283 108.666 89.1814 112.834 91.6929 117.148C89.2052 119.626 86.9314 122.465 84.9051 125.625C84.7929 125.609 84.6824 125.56 84.5708 125.554C81.8311 125.423 79.807 129.012 80.0587 133.563C80.3102 138.109 82.743 141.911 85.4828 142.042C88.1973 142.171 90.1865 138.665 89.9928 134.191C92.0271 131.121 94.3213 128.397 96.8361 126.067C99.8864 131.401 102.913 136.759 105.915 142.14C103.583 144.443 101.389 146.984 99.3486 149.745C99.1152 149.679 98.8851 149.609 98.6511 149.598C95.9006 149.466 93.8836 153.055 94.1351 157.601C94.3868 162.152 96.8122 165.949 99.5627 166.08C102.133 166.203 104.051 163.034 104.065 158.87C106.106 156.152 108.308 153.667 110.652 151.435C111.925 155.561 112.724 161.953 113.042 168.096C108.908 167.637 104.777 167.293 100.651 167.065C85.185 166.325 70.1086 168.155 62.5564 184.43C39.1181 166.797 20.0917 141.422 7.52234 122.882C6.89397 106.848 3.45205 96.6827 0.0305926 86.9529C-2.8253 78.8141 -5.52086 71.1072 -6.38239 59.9458C-6.08269 56.6003 -5.73287 53.2524 -5.31026 49.9868ZM-4.69577 89.4651C-2.08366 96.8966 0.392319 104.139 1.60921 114C0.569525 112.406 -0.404028 110.904 -1.29929 109.52C-5.26792 103.4 -7.36114 100.221 -8.84947 98.6304C-9.22631 91.5016 -9.14024 84.4112 -8.59229 77.4431C-7.41402 81.7374 -6.04218 85.6364 -4.69577 89.4651ZM124.284 252.346C95.5654 250.973 72.5252 239.955 61.0579 222.125C46.0937 198.848 33.2547 185.106 21.9268 172.976C11.874 162.218 2.38169 152.05 -7.04218 136.888C-8.97581 133.608 -10.7823 113.867 -10.169 106.259C-8.81909 108.203 -6.93119 111.11 -5.08589 113.961C10.2052 137.564 46.0155 192.826 92.6553 208.164C99.527 210.421 109.371 211.953 120.362 212.478C145.031 213.658 186.582 209.896 198.012 189.791C198.688 193.908 199.537 201.275 200.259 214.32C201.468 236.184 165.254 254.305 124.284 252.346Z" fill="black"/>
</svg>
