<svg width="205" height="296" viewBox="0 0 205 296" fill="none" xmlns="http://www.w3.org/2000/svg">
<path d="M6.23855 210.491C10.6213 199.882 17.3107 185.662 22.7275 182.882C25.6747 179.401 30.2789 176.324 35.2127 173.099L37.7267 171.439C37.5975 168.662 38.1731 166.568 39.5195 165.06C47.7549 155.866 56.0248 142.764 63.9258 128.203C63.6884 127.433 63.5414 126.585 63.521 125.654C63.4443 122.159 65.0817 119.115 67.1733 118.853C67.7771 118.777 68.3306 118.779 68.9267 118.716C71.2259 114.212 73.4708 109.659 75.6605 105.056C75.2468 104.114 74.9382 103.025 74.9102 101.751C74.8334 98.251 76.4708 95.2071 78.5583 94.9449C78.7543 94.9202 79.4383 94.8399 80.4833 94.7641C83.0337 89.1887 85.54 83.5768 88.0015 77.9294C87.8221 77.2465 87.6977 76.5124 87.6803 75.7203C87.6035 72.2198 89.2368 69.1709 91.3243 68.9086C91.5283 68.883 91.7127 68.8821 91.9087 68.8574C94.2251 63.4159 96.5208 57.9584 98.7955 52.4853C98.6617 51.8744 98.5317 51.2465 98.5166 50.5597C98.4398 47.0647 100.081 44.0204 102.165 43.7586L102.429 43.7365C111.708 21.443 113.41 18.0412 116.109 17.7021C117.893 17.478 119.552 17.4361 121.169 17.4608C121.743 15.8723 122.331 14.3266 122.901 12.7165C124.68 7.70544 128.578 1.48951 137.012 0.429881C149.789 -1.17538 167.609 9.76551 178.092 17.2517C187.72 10.2937 195.949 6.28282 202.479 5.46236C209.146 4.6248 212.315 7.24248 213.655 8.90145C213.737 8.98556 213.834 9.02889 213.912 9.13012C221.342 19.1049 226.415 38.8621 229.829 58.6333C235.022 78.9031 235.911 95.8257 236.007 103.667C236.31 104.105 236.574 104.594 236.793 105.124C239.731 112.724 239.844 143.641 236.104 150.826C226.513 169.32 216.556 181.779 206.015 194.973C194.092 209.895 181.766 225.323 167.464 251.863C155.142 274.739 128.783 290.275 95.1389 294.502C50.3172 300.133 1.84017 284.124 1.12007 251.329C0.32736 215.227 3.05505 211.063 6.23855 210.491ZM10.7639 215.51C19.8387 233.037 60.2939 238.019 95.7178 233.568C107.543 232.082 117.956 229.641 125.049 226.684C134.872 222.589 144.082 216.7 152.688 209.765C144.16 195.929 129.264 195.485 114.14 197.385C108.265 198.123 102.211 199.25 95.7928 200.456C89.239 201.68 82.4616 202.942 75.7511 203.785C59.5548 205.82 39.1146 206.155 23.4848 191.074C20.8035 193.699 15.5827 203.758 10.7639 215.51ZM57.2142 158.76C54.9722 162.396 52.8584 165.844 51.0449 168.91C48.5666 173.11 43.1585 176.649 37.4421 180.395C34.4851 182.332 31.5089 184.311 29.1651 186.233C42.9109 197.88 60.2174 197.644 75.5739 195.715C81.8405 194.928 88.2148 193.749 94.4209 192.586C94.2392 183.762 94.97 174.672 96.421 168.98C87.193 162.742 74.004 157.273 57.2142 158.76ZM74.0963 130.979C71.1471 135.974 68.164 140.931 65.1474 145.85C80.3319 146.314 92.3528 151.907 100.974 158.072C103.812 151.909 106.674 145.766 109.56 139.643C101.415 134.512 89.8328 130.285 74.0963 130.979ZM81.4093 118.308C95.9286 118.978 106.798 123.644 114.62 129.054C116.936 124.22 119.212 119.535 121.43 115.018C109.574 108.716 96.0986 107.365 87.5348 107.263C85.4535 111.096 83.4203 114.745 81.4093 118.308ZM126.68 104.473C129.456 98.9533 132.27 93.4694 135.121 88.0218C126.589 84.0396 115.135 80.7187 101.005 80.9556C98.7487 85.6105 96.4422 90.22 94.086 94.7824C103.513 95.4809 115.756 97.8417 126.68 104.473ZM93.1115 81.4474C91.4281 85.3245 89.69 89.2641 87.8929 93.2556C89.932 89.3321 91.9345 85.3738 93.9 81.3816C93.6358 81.4037 93.3794 81.4137 93.1115 81.4474ZM103.78 56.3023C102.195 60.106 100.526 64.0924 98.7574 68.2858C99.246 68.2577 99.7117 68.277 100.197 68.2605C102.059 64.2484 103.886 60.2066 105.677 56.1362C105.036 56.1944 104.424 56.2325 103.78 56.3023ZM140.834 77.3622C143.502 72.4562 146.22 67.6025 148.988 62.8026C140.236 58.709 128.123 55.2989 112.512 55.6995C110.658 60.0091 108.798 64.214 106.938 68.2911C121.168 68.947 132.509 72.9707 140.834 77.3622ZM117.099 25.6978C115.728 27.8918 112.671 34.9961 109.253 43.1457C109.926 43.1056 110.603 43.0595 111.264 43.032C113.635 37.2942 115.931 31.5008 118.149 25.6548C117.792 25.6829 117.467 25.6626 117.099 25.6978ZM137.189 8.50544C132.67 9.07318 129.704 11.5064 128.125 15.9425C124.882 25.0709 121.454 34.0824 117.847 42.9658C134.121 43.3706 146.481 47.7828 155.202 52.5077C163.352 39.4037 170.28 30.1967 175.93 25.088C166.11 17.9906 148.814 7.04487 137.189 8.50544ZM209.381 14.7759C208.751 14.244 206.819 13.0093 202.66 13.5319C199.437 13.9368 194.3 15.5542 186.818 20.171C197.002 20.4799 202.859 30.8078 207.586 39.3448C210.626 44.8169 213.482 49.9844 216.046 49.8511C217.553 46.8848 214.381 30.3044 209.381 14.7759ZM221.996 49.6312C221.822 51.2082 221.5 52.6039 221.003 53.7437C219.98 56.0662 218.342 57.466 216.391 57.7112C210.576 58.4418 206.831 51.6809 202.864 44.5147C198.12 35.9686 193.222 27.131 184.536 28.2222C179.682 28.8322 171.473 38.5057 160.699 55.7605C163.528 57.6379 165.712 59.4018 167.364 60.8549C167.807 60.5902 168.272 60.4194 168.744 60.3482C171.796 59.9649 174.358 63.7863 174.47 68.882C174.581 73.9777 172.201 78.4201 169.149 78.8035C166.478 79.1391 164.181 76.2452 163.576 72.089C160.74 69.6514 157.76 67.5303 154.663 65.7442C151.826 70.6139 149.048 75.5476 146.33 80.543C148.938 82.1962 151.47 84.0569 153.911 86.1165C154.38 85.8215 154.876 85.6335 155.379 85.56C158.426 85.1772 160.988 88.9931 161.1 94.0943C161.212 99.1955 158.831 103.632 155.784 104.015C153.157 104.345 150.901 101.541 150.251 97.4957C147.217 94.9746 144.044 92.7711 140.755 90.9019C137.894 96.31 134.932 102.02 131.884 108.057C135.219 110.635 138.305 113.761 141.079 117.371C141.227 117.33 141.366 117.263 141.518 117.243C144.577 116.859 147.135 120.681 147.247 125.777C147.359 130.867 144.982 135.314 141.923 135.699C138.936 136.074 136.42 132.38 136.231 127.416C133.415 123.764 130.229 120.695 126.763 118.292C124.44 122.994 122.065 127.852 119.637 132.878C122.624 135.426 125.404 138.396 127.936 141.744C128.06 141.717 128.179 141.652 128.303 141.637C131.346 141.254 133.912 145.081 134.024 150.176C134.136 155.267 131.751 159.715 128.708 160.097C125.693 160.476 123.172 156.738 123.002 151.733C120.469 148.486 117.677 145.647 114.672 143.266C111.731 149.476 108.819 155.711 105.935 161.97C108.734 164.336 111.4 166.98 113.913 169.882C114.167 169.789 114.418 169.691 114.678 169.658C117.733 169.274 120.291 173.102 120.403 178.192C120.515 183.287 118.138 187.729 115.083 188.113C112.228 188.472 109.816 185.104 109.441 180.463C106.931 177.609 104.262 175.028 101.456 172.741C100.393 177.451 100.053 184.647 100.228 191.524C104.798 190.656 109.374 189.916 113.954 189.305C131.134 187.146 148.101 187.886 157.925 205.38C182.537 183.699 201.561 153.766 213.976 132.011C213.293 114.08 216.254 102.45 219.23 91.3066C221.712 81.986 224.052 73.1609 224.05 60.6423C223.428 56.9382 222.749 53.2356 221.996 49.6312ZM224.716 93.6998C222.445 102.211 220.309 110.499 219.803 121.599C220.824 119.732 221.78 117.973 222.659 116.352C226.556 109.187 228.615 105.462 230.138 103.56C229.943 95.5796 229.235 87.6817 228.023 79.9601C227.08 84.8495 225.887 89.3149 224.716 93.6998ZM94.9616 286.427C126.862 282.419 151.6 268.147 162.848 247.278C177.524 220.035 190.653 203.607 202.237 189.105C212.517 176.244 222.223 164.089 231.422 146.371C233.295 142.547 233.607 120.381 232.267 111.952C230.929 114.236 229.075 117.64 227.264 120.978C212.251 148.613 177.092 213.314 126.414 234.438C118.948 237.548 108.104 240.104 95.895 241.638C68.4933 245.081 21.8422 244.471 7.36426 223.041C6.96508 227.69 6.65379 235.977 6.9745 250.582C7.51205 275.064 49.452 292.144 94.9616 286.427Z" fill="black"/>
</svg>
