<svg width="15.000000" height="12.234375" viewBox="0 0 15 12.2344" fill="none" xmlns="http://www.w3.org/2000/svg" xmlns:xlink="http://www.w3.org/1999/xlink">
	<desc>
			Created with Pixso.
	</desc>
	<defs/>
	<path id="Vector" d="M15 0C14.34 0.46 13.62 0.81 12.85 1.05C12.44 0.57 11.9 0.24 11.29 0.09C10.68 -0.07 10.04 -0.03 9.46 0.2C8.88 0.42 8.37 0.82 8.02 1.33C7.67 1.85 7.49 2.46 7.5 3.09L7.5 3.77C6.3 3.8 5.11 3.54 4.04 3C2.97 2.46 2.05 1.66 1.36 0.68C1.36 0.68 -1.37 6.82 4.77 9.55C3.36 10.5 1.69 10.98 0 10.91C6.13 14.32 13.63 10.91 13.63 3.07C13.63 2.88 13.61 2.69 13.58 2.5C14.27 1.82 14.76 0.95 15 0Z" fill="#000000" fill-opacity="1.000000" fill-rule="nonzero"/>
</svg>
